<?xml version="1.0" encoding="UTF-8" standalone="no"?>
<svg
   xmlns:dc="http://purl.org/dc/elements/1.1/"
   xmlns:cc="http://creativecommons.org/ns#"
   xmlns:rdf="http://www.w3.org/1999/02/22-rdf-syntax-ns#"
   xmlns:svg="http://www.w3.org/2000/svg"
   xmlns="http://www.w3.org/2000/svg"
   xmlns:sodipodi="http://sodipodi.sourceforge.net/DTD/sodipodi-0.dtd"
   xmlns:inkscape="http://www.inkscape.org/namespaces/inkscape"
   height="28"
   viewBox="0 0 44 28"
   width="44"
   id="svg2"
   version="1.1"
   inkscape:version="0.48.4 r9939"
   sodipodi:docname="promo.svg"
   inkscape:export-filename="promo.png"
   inkscape:export-xdpi="876.82001"
   inkscape:export-ydpi="876.82001"
   style="fill:#000000">
  <metadata
     id="metadata12">
    <rdf:RDF>
      <cc:Work
         rdf:about="">
        <dc:format>image/svg+xml</dc:format>
        <dc:type
           rdf:resource="http://purl.org/dc/dcmitype/StillImage" />
        <dc:title></dc:title>
      </cc:Work>
    </rdf:RDF>
  </metadata>
  <defs
     id="defs10">
    <inkscape:path-effect
       effect="spiro"
       id="path-effect2999"
       is_visible="true" />
    <inkscape:path-effect
       effect="spiro"
       id="path-effect2992"
       is_visible="true" />
  </defs>
  <sodipodi:namedview
     pagecolor="#ffffff"
     bordercolor="#666666"
     borderopacity="1"
     objecttolerance="10"
     gridtolerance="10"
     guidetolerance="10"
     inkscape:pageopacity="0"
     inkscape:pageshadow="2"
     inkscape:window-width="1366"
     inkscape:window-height="714"
     id="namedview8"
     showgrid="false"
     inkscape:zoom="7.7794114"
     inkscape:cx="28.882533"
     inkscape:cy="19.822044"
     inkscape:window-x="0"
     inkscape:window-y="0"
     inkscape:window-maximized="1"
     inkscape:current-layer="svg2" />
  <rect
     style="fill:#001280;fill-opacity:1;stroke:none"
     id="rect3813"
     width="45.163074"
     height="29.311953"
     x="-0.72303432"
     y="-0.23536541"
     inkscape:export-filename="/home/ovi/src/darken/icon-16.png"
     inkscape:export-xdpi="60.119999"
     inkscape:export-ydpi="60.119999" />
  <path
     sodipodi:type="arc"
     style="fill:#ffff00;fill-opacity:1;stroke:none"
     id="path3023"
     sodipodi:cx="10.650796"
     sodipodi:cy="10.785941"
     sodipodi:rx="4.9939418"
     sodipodi:ry="4.9939418"
     d="M 11.154492,5.817466 A 4.9939418,4.9939418 0 1 1 10.784516,5.7937899"
     sodipodi:start="4.8134221"
     sodipodi:end="11.022354"
     sodipodi:open="true"
     transform="matrix(1.5398008,0,0,1.5398008,11.086519,-1.3200665)" />
  <path
     sodipodi:type="arc"
     style="fill:#001280;fill-opacity:1;stroke:none"
     id="path3023-5"
     sodipodi:cx="10.650796"
     sodipodi:cy="10.785941"
     sodipodi:rx="4.9939418"
     sodipodi:ry="4.9939418"
     d="M 11.154492,5.817466 A 4.9939418,4.9939418 0 1 1 10.784516,5.7937899"
     sodipodi:start="4.8134221"
     sodipodi:end="11.022354"
     sodipodi:open="true"
     transform="matrix(1.5398008,0,0,1.5398008,7.1089484,-2.0273491)" />
  <path
     sodipodi:type="star"
     style="fill:#ffff00;fill-opacity:1;stroke:none"
     id="path3817"
     sodipodi:sides="5"
     sodipodi:cx="-20.948038"
     sodipodi:cy="6.8526597"
     sodipodi:r1="4.0745015"
     sodipodi:r2="2.0372508"
     sodipodi:arg1="1.1459642"
     sodipodi:arg2="1.7742827"
     inkscape:flatsided="false"
     inkscape:rounded="0"
     inkscape:randomized="0"
     d="m -19.26866,10.56497 -2.091076,-1.7170921 -2.599963,0.7491327 0.986874,-2.5193425 -1.5159,-2.2412169 2.700998,0.1600532 1.663085,-2.134281 0.682434,2.6182608 2.543744,0.9221587 -2.27923,1.458121 z"
     inkscape:transform-center-x="-0.13888705"
     inkscape:transform-center-y="-0.075233524"
     transform="matrix(0.54584622,0,0,0.54100348,31.037348,4.7111845)" />
  <path
     sodipodi:type="star"
     style="fill:#ffff00;fill-opacity:1;stroke:none"
     id="path3817-0"
     sodipodi:sides="5"
     sodipodi:cx="-20.948038"
     sodipodi:cy="6.8526597"
     sodipodi:r1="4.0745015"
     sodipodi:r2="2.0372508"
     sodipodi:arg1="1.1459642"
     sodipodi:arg2="1.7742827"
     inkscape:flatsided="false"
     inkscape:rounded="0"
     inkscape:randomized="0"
     d="m -19.26866,10.56497 -2.091076,-1.7170921 -2.599963,0.7491327 0.986874,-2.5193425 -1.5159,-2.2412169 2.700998,0.1600532 1.663085,-2.134281 0.682434,2.6182608 2.543744,0.9221587 -2.27923,1.458121 z"
     inkscape:transform-center-x="0.06221509"
     inkscape:transform-center-y="-0.071657547"
     transform="matrix(0.32677845,-0.11893763,0.11788242,0.32387928,29.453789,21.281352)" />
  <path
     sodipodi:type="star"
     style="fill:#ffff00;fill-opacity:1;stroke:none"
     id="path3817-0-8"
     sodipodi:sides="5"
     sodipodi:cx="-20.948038"
     sodipodi:cy="6.8526597"
     sodipodi:r1="4.0745015"
     sodipodi:r2="2.0372508"
     sodipodi:arg1="1.1459642"
     sodipodi:arg2="1.7742827"
     inkscape:flatsided="false"
     inkscape:rounded="0"
     inkscape:randomized="0"
     d="m -19.26866,10.56497 -2.091076,-1.7170921 -2.599963,0.7491327 0.986874,-2.5193425 -1.5159,-2.2412169 2.700998,0.1600532 1.663085,-2.134281 0.682434,2.6182608 2.543744,0.9221587 -2.27923,1.458121 z"
     inkscape:transform-center-x="-0.17022423"
     inkscape:transform-center-y="0.0047011759"
     transform="matrix(0.19524183,-0.41869747,0.4149828,0.19350966,25.548834,6.6759913)" />
  <path
     sodipodi:type="star"
     style="fill:#ffff00;fill-opacity:1;stroke:none"
     id="path3817-0-5"
     sodipodi:sides="5"
     sodipodi:cx="-20.948038"
     sodipodi:cy="6.8526597"
     sodipodi:r1="4.0745015"
     sodipodi:r2="2.0372508"
     sodipodi:arg1="1.1459642"
     sodipodi:arg2="1.7742827"
     inkscape:flatsided="false"
     inkscape:rounded="0"
     inkscape:randomized="0"
     d="m -19.26866,10.56497 -2.091076,-1.7170921 -2.599963,0.7491327 0.986874,-2.5193425 -1.5159,-2.2412169 2.700998,0.1600532 1.663085,-2.134281 0.682434,2.6182608 2.543744,0.9221587 -2.27923,1.458121 z"
     inkscape:transform-center-x="-0.10379788"
     inkscape:transform-center-y="-0.034353685"
     transform="matrix(0.11893763,-0.32677845,0.32387928,0.11788242,36.330106,-2.8352816)" />
  <path
     sodipodi:type="star"
     style="fill:#ffff00;fill-opacity:1;stroke:none"
     id="path3817-0-5-2"
     sodipodi:sides="5"
     sodipodi:cx="-20.948038"
     sodipodi:cy="6.8526597"
     sodipodi:r1="4.0745015"
     sodipodi:r2="2.0372508"
     sodipodi:arg1="1.1459642"
     sodipodi:arg2="1.7742827"
     inkscape:flatsided="false"
     inkscape:rounded="0"
     inkscape:randomized="0"
     d="m -19.26866,10.56497 -2.091076,-1.7170921 -2.599963,0.7491327 0.986874,-2.5193425 -1.5159,-2.2412169 2.700998,0.1600532 1.663085,-2.134281 0.682434,2.6182608 2.543744,0.9221587 -2.27923,1.458121 z"
     inkscape:transform-center-x="0.061163473"
     inkscape:transform-center-y="-0.050763625"
     transform="matrix(-0.01575847,-0.26662341,0.29802183,-0.01384917,38.616963,6.8164024)" />
  <path
     sodipodi:type="star"
     style="fill:#ffff00;fill-opacity:1;stroke:none"
     id="path3817-0-5-2-4"
     sodipodi:sides="5"
     sodipodi:cx="-20.948038"
     sodipodi:cy="6.8526597"
     sodipodi:r1="4.0745015"
     sodipodi:r2="2.0372508"
     sodipodi:arg1="1.1459642"
     sodipodi:arg2="1.7742827"
     inkscape:flatsided="false"
     inkscape:rounded="0"
     inkscape:randomized="0"
     d="m -19.26866,10.56497 -2.091076,-1.7170921 -2.599963,0.7491327 0.986874,-2.5193425 -1.5159,-2.2412169 2.700998,0.1600532 1.663085,-2.134281 0.682434,2.6182608 2.543744,0.9221587 -2.27923,1.458121 z"
     inkscape:transform-center-x="0.061163433"
     inkscape:transform-center-y="-0.050763625"
     transform="matrix(-0.01575847,-0.26662341,0.29802183,-0.01384917,19.804067,-1.3683605)" />
  <path
     sodipodi:type="star"
     style="fill:#ffff00;fill-opacity:1;stroke:none"
     id="path3817-0-5-2-4-7"
     sodipodi:sides="5"
     sodipodi:cx="-20.948038"
     sodipodi:cy="6.8526597"
     sodipodi:r1="4.0745015"
     sodipodi:r2="2.0372508"
     sodipodi:arg1="1.1459642"
     sodipodi:arg2="1.7742827"
     inkscape:flatsided="false"
     inkscape:rounded="0"
     inkscape:randomized="0"
     d="m -19.26866,10.56497 -2.091076,-1.7170921 -2.599963,0.7491327 0.986874,-2.5193425 -1.5159,-2.2412169 2.700998,0.1600532 1.663085,-2.134281 0.682434,2.6182608 2.543744,0.9221587 -2.27923,1.458121 z"
     inkscape:transform-center-x="0.044580901"
     inkscape:transform-center-y="-0.037000775"
     transform="matrix(-0.01148606,-0.19433693,0.21722266,-0.01009441,35.914113,20.214083)" />
  <path
     sodipodi:type="star"
     style="fill:#ffff00;fill-opacity:1;stroke:none"
     id="path3817-9"
     sodipodi:sides="5"
     sodipodi:cx="-20.948038"
     sodipodi:cy="6.8526597"
     sodipodi:r1="4.0745015"
     sodipodi:r2="2.0372508"
     sodipodi:arg1="1.1459642"
     sodipodi:arg2="1.7742827"
     inkscape:flatsided="false"
     inkscape:rounded="0"
     inkscape:randomized="0"
     d="m -19.26866,10.56497 -2.091076,-1.7170921 -2.599963,0.7491327 0.986874,-2.5193425 -1.5159,-2.2412169 2.700998,0.1600532 1.663085,-2.134281 0.682434,2.6182608 2.543744,0.9221587 -2.27923,1.458121 z"
     inkscape:transform-center-x="-0.13888705"
     inkscape:transform-center-y="-0.075233524"
     transform="matrix(0.54584622,0,0,0.54100348,17.532744,-0.23490963)" />
  <path
     sodipodi:type="star"
     style="fill:#ffff00;fill-opacity:1;stroke:none"
     id="path3817-0-8-6"
     sodipodi:sides="5"
     sodipodi:cx="-20.948038"
     sodipodi:cy="6.8526597"
     sodipodi:r1="4.0745015"
     sodipodi:r2="2.0372508"
     sodipodi:arg1="1.1459642"
     sodipodi:arg2="1.7742827"
     inkscape:flatsided="false"
     inkscape:rounded="0"
     inkscape:randomized="0"
     d="m -19.26866,10.56497 -2.091076,-1.7170921 -2.599963,0.7491327 0.986874,-2.5193425 -1.5159,-2.2412169 2.700998,0.1600532 1.663085,-2.134281 0.682434,2.6182608 2.543744,0.9221587 -2.27923,1.458121 z"
     inkscape:transform-center-x="-0.17022423"
     inkscape:transform-center-y="0.0047011759"
     transform="matrix(0.19524183,-0.41869747,0.4149828,0.19350966,12.044231,1.7298972)" />
  <path
     sodipodi:type="star"
     style="fill:#ffff00;fill-opacity:1;stroke:none"
     id="path3817-0-5-2-5"
     sodipodi:sides="5"
     sodipodi:cx="-20.948038"
     sodipodi:cy="6.8526597"
     sodipodi:r1="4.0745015"
     sodipodi:r2="2.0372508"
     sodipodi:arg1="1.1459642"
     sodipodi:arg2="1.7742827"
     inkscape:flatsided="false"
     inkscape:rounded="0"
     inkscape:randomized="0"
     d="m -19.26866,10.56497 -2.091076,-1.7170921 -2.599963,0.7491327 0.986874,-2.5193425 -1.5159,-2.2412169 2.700998,0.1600532 1.663085,-2.134281 0.682434,2.6182608 2.543744,0.9221587 -2.27923,1.458121 z"
     inkscape:transform-center-x="0.061163473"
     inkscape:transform-center-y="-0.050763625"
     transform="matrix(-0.01575847,-0.26662341,0.29802183,-0.01384917,1.3316412,6.2408189)" />
  <path
     sodipodi:type="star"
     style="fill:#ffff00;fill-opacity:1;stroke:none"
     id="path3817-2"
     sodipodi:sides="5"
     sodipodi:cx="-20.948038"
     sodipodi:cy="6.8526597"
     sodipodi:r1="4.0745015"
     sodipodi:r2="2.0372508"
     sodipodi:arg1="1.1459642"
     sodipodi:arg2="1.7742827"
     inkscape:flatsided="false"
     inkscape:rounded="0"
     inkscape:randomized="0"
     d="m -19.26866,10.56497 -2.091076,-1.7170921 -2.599963,0.7491327 0.986874,-2.5193425 -1.5159,-2.2412169 2.700998,0.1600532 1.663085,-2.134281 0.682434,2.6182608 2.543744,0.9221587 -2.27923,1.458121 z"
     inkscape:transform-center-x="-0.13888705"
     inkscape:transform-center-y="-0.075233524"
     transform="matrix(0.54584622,0,0,0.54100348,14.319133,19.946565)" />
  <path
     sodipodi:type="star"
     style="fill:#ffff00;fill-opacity:1;stroke:none"
     id="path3817-0-1"
     sodipodi:sides="5"
     sodipodi:cx="-20.948038"
     sodipodi:cy="6.8526597"
     sodipodi:r1="4.0745015"
     sodipodi:r2="2.0372508"
     sodipodi:arg1="1.1459642"
     sodipodi:arg2="1.7742827"
     inkscape:flatsided="false"
     inkscape:rounded="0"
     inkscape:randomized="0"
     d="m -19.26866,10.56497 -2.091076,-1.7170921 -2.599963,0.7491327 0.986874,-2.5193425 -1.5159,-2.2412169 2.700998,0.1600532 1.663085,-2.134281 0.682434,2.6182608 2.543744,0.9221587 -2.27923,1.458121 z"
     inkscape:transform-center-x="0.06221509"
     inkscape:transform-center-y="-0.071657547"
     transform="matrix(0.32677845,-0.11893763,0.11788242,0.32387928,20.962417,-2.4322294)" />
  <path
     sodipodi:type="star"
     style="fill:#ffff00;fill-opacity:1;stroke:none"
     id="path3817-0-8-3"
     sodipodi:sides="5"
     sodipodi:cx="-20.948038"
     sodipodi:cy="6.8526597"
     sodipodi:r1="4.0745015"
     sodipodi:r2="2.0372508"
     sodipodi:arg1="1.1459642"
     sodipodi:arg2="1.7742827"
     inkscape:flatsided="false"
     inkscape:rounded="0"
     inkscape:randomized="0"
     d="m -19.26866,10.56497 -2.091076,-1.7170921 -2.599963,0.7491327 0.986874,-2.5193425 -1.5159,-2.2412169 2.700998,0.1600532 1.663085,-2.134281 0.682434,2.6182608 2.543744,0.9221587 -2.27923,1.458121 z"
     inkscape:transform-center-x="-0.17022423"
     inkscape:transform-center-y="0.0047011759"
     transform="matrix(0.19524183,-0.41869747,0.4149828,0.19350966,14.100942,11.756363)" />
  <path
     sodipodi:type="star"
     style="fill:#ffff00;fill-opacity:1;stroke:none"
     id="path3817-0-5-2-1"
     sodipodi:sides="5"
     sodipodi:cx="-20.948038"
     sodipodi:cy="6.8526597"
     sodipodi:r1="4.0745015"
     sodipodi:r2="2.0372508"
     sodipodi:arg1="1.1459642"
     sodipodi:arg2="1.7742827"
     inkscape:flatsided="false"
     inkscape:rounded="0"
     inkscape:randomized="0"
     d="m -19.26866,10.56497 -2.091076,-1.7170921 -2.599963,0.7491327 0.986874,-2.5193425 -1.5159,-2.2412169 2.700998,0.1600532 1.663085,-2.134281 0.682434,2.6182608 2.543744,0.9221587 -2.27923,1.458121 z"
     inkscape:transform-center-x="0.061163473"
     inkscape:transform-center-y="-0.050763625"
     transform="matrix(-0.01575847,-0.26662341,0.29802183,-0.01384917,12.515006,10.611329)" />
</svg>
